subject01_walk1_RRA_states
nRows=5
nColumns=47

# SIMM Motion File Header:
name subject01_walk1_RRA_states
datacolumns 47
datarows 5
otherdata 1
range 1.24599999999997340000 1.24799999999997310000
endheader
time	pelvis_tx	pelvis_ty	pelvis_tz	pelvis_tilt	pelvis_list	pelvis_rotation	hip_flexion_r	hip_adduction_r	hip_rotation_r	knee_angle_r	ankle_angle_r	subtalar_angle_r	mtp_angle_r	hip_flexion_l	hip_adduction_l	hip_rotation_l	knee_angle_l	ankle_angle_l	subtalar_angle_l	mtp_angle_l	lumbar_extension	lumbar_bending	lumbar_rotation	pelvis_tx_u	pelvis_ty_u	pelvis_tz_u	pelvis_tilt_u	pelvis_list_u	pelvis_rotation_u	hip_flexion_r_u	hip_adduction_r_u	hip_rotation_r_u	knee_angle_r_u	ankle_angle_r_u	subtalar_angle_r_u	mtp_angle_r_u	hip_flexion_l_u	hip_adduction_l_u	hip_rotation_l_u	knee_angle_l_u	ankle_angle_l_u	subtalar_angle_l_u	mtp_angle_l_u	lumbar_extension_u	lumbar_bending_u	lumbar_rotation_u
      1.24599999999997340000	      0.59326443333739731000	      1.00905156718251620000	      0.05106083266297366900	      4.76929640952184200000	     -4.25651398699604580000	     -4.03512053586623500000	    -21.04137362688075900000	      4.74175005698917660000	      2.75923532031394280000	     -7.91003050852119840000	     13.81470806782104100000	      0.02592361687703414000	     -0.05243891277311735900	     18.92950509731791400000	     -5.48248942846688700000	     -3.60790319990148680000	     -2.37378192420280460000	     -0.48371363917781429000	     -0.00194684252358685860	      0.00311961511285512590	    -16.63501473379493900000	      3.25126318555636650000	      3.86871445374032510000	      0.11441313168776343000	     -0.10131798176606498000	     -0.04466597052923410000	     -4.11005205471762200000	      6.58671865401154480000	    -19.25425656375679000000	    -27.12264776301498200000	    -24.46740085623524800000	     29.86423060724108700000	    -82.20553759686478700000	     37.36275629128061100000	     -0.31611522501519473000	     -0.44309220026559654000	     22.60449625647241200000	     13.37590278253073900000	     31.06429308702426800000	   -111.93274031106432000000	    -28.73095115452095200000	      0.03181266427577098000	     -0.06081432627633855800	     11.89210067318112600000	    -30.28826565722343400000	     -1.82062638809719090000
      1.24649999999997330000	      0.59332189452319783000	      1.00900105161487970000	      0.05103846129667140300	      4.76722950423502390000	     -4.25320301522999690000	     -4.04472683892313430000	    -21.05483083246293700000	      4.72951892844472610000	      2.77414807154506970000	     -7.95134341316955240000	     13.83338783639321100000	      0.02576441015963253800	     -0.05266156061591608500	     18.94084209461170700000	     -5.47577940662528830000	     -3.59243556821047430000	     -2.43006971596121660000	     -0.49821942944904407000	     -0.00193089819906685800	      0.00308834438971340110	    -16.62903167157623900000	      3.23608853774246710000	      3.86778093812150960000	      0.11543208812535181000	     -0.10074321000836506000	     -0.04481972459859449200	     -4.15737069207746130000	      6.65694387358318100000	    -19.17081831112936300000	    -26.70583419255506600000	    -24.45674436929265400000	     29.78615119971349800000	    -83.04708845594460300000	     37.35534660355458700000	     -0.32084354373472168000	     -0.44852730057304363000	     22.74285487256549500000	     13.46411222595603600000	     30.80637951314674100000	   -113.21603781456045000000	    -29.29070278153965000000	      0.03206621573866647700	     -0.06553759582656840100	     12.03999804600423900000	    -30.41004550757583400000	     -1.91346534885572120000
      1.24699999999997320000	      0.59337986586632052000	      1.00895082511225430000	      0.05101601267932351400	      4.76513924638941690000	     -4.24985723210981540000	     -4.05429120322640910000	    -21.06807912454053200000	      4.71729364189208140000	      2.78902086106837510000	     -7.99307855439848150000	     13.85206182204394700000	      0.02560274797652127900	     -0.05288742115127671700	     18.95224729251186300000	     -5.46902534509764400000	     -3.57709664589709990000	     -2.48699539937469980000	     -0.51300367009795100000	     -0.00191477190537370980	      0.00305404193713371480	    -16.62297489793926900000	      3.22085338349855020000	      3.86680093817792430000	      0.11645368602521072000	     -0.10016159702733539000	     -0.04497503491585652000	     -4.20344328127495980000	      6.72603790867719290000	    -19.08647357123307500000	    -26.28700286246893500000	    -24.44411548658309000000	     29.70440838959124700000	    -83.89437724691116200000	     37.33837454123880000000	     -0.32570653994716370000	     -0.45383660918066110000	     22.87725385419236800000	     13.55215201033948300000	     30.54951515748616900000	   -114.48394684710478000000	    -29.84647559908799500000	      0.03233492252043775700	     -0.07039662978987565300	     12.18692136889181500000	    -30.53036744163469200000	     -2.00660698814943260000
      1.24749999999997320000	      0.59343834865613632000	      1.00890089124403030000	      0.05099348597425960200	      4.76302627774787180000	     -4.24647714873392970000	     -4.06381315727464450000	    -21.08111749857370400000	      4.70507511955449780000	      2.80385184830472230000	     -8.03523871463437620000	     13.87072447038444700000	      0.02543872401490867100	     -0.05311518635677352900	     18.96371867543231800000	     -5.46222726397431300000	     -3.56188587384720680000	     -2.54455101892785280000	     -0.52806547884944743000	     -0.00189867216531741370	      0.00301828414601166110	    -16.61684491959805500000	      3.20555839839565860000	      3.86577427138368800000	      0.11747796732708937000	     -0.09957263617374453900	     -0.04513206496229864300	     -4.24821703663513080000	      6.79409792923448920000	    -19.00119942651686600000	    -25.86614860305755300000	    -24.42964072584116800000	     29.61888033553920300000	    -84.74722353247543100000	     37.31100637752877700000	     -0.33046467496640985000	     -0.45795529137614877000	     23.00761913982943700000	     13.64012748531541100000	     30.29372602661561900000	   -115.73601826265107000000	    -30.39958596393535500000	      0.03199396196323017100	     -0.07338165152923856200	     12.33283036862248300000	    -30.64931506357773800000	     -2.10010403636258580000
      1.24799999999997310000	      0.59349734430000112000	      1.00885125375208840000	      0.05097088032040437300	      4.76089124668639660000	     -4.24306331121910410000	     -4.07329225099736990000	    -21.09394492320310400000	      4.69286431205530090000	      2.81863910832535640000	     -8.07782672645617520000	     13.88937115066614900000	      0.02527227963599088300	     -0.05334530750989881900	     18.97525424576007000000	     -5.45538524210284860000	     -3.54680273676441750000	     -2.60272881035685130000	     -0.54340262795749206000	     -0.00188280659680245390	      0.00298075303069137700	    -16.61064223454297200000	      3.19020430491208940000	      3.86470077762907180000	      0.11850504884482864000	     -0.09897602876820796300	     -0.04529085313960887900	     -4.29168878925335310000	      6.86108998373440040000	    -18.91501743004805600000	    -25.44319209152933700000	    -24.41329406166931900000	     29.52955853352373700000	    -85.60577407121806500000	     37.27362106429924200000	     -0.33526333378268869000	     -0.46173832495665584000	     23.13399370570120800000	     13.72794752427337500000	     30.03903519747621000000	   -116.97247274492781000000	    -30.94881907703777600000	      0.03152761412360425400	     -0.07595884082183357300	     12.47773963258496000000	    -30.76683791570024700000	     -2.19393686381297700000
